<svg width="48" height="48" viewBox="0 0 48 48" fill="none" xmlns="http://www.w3.org/2000/svg">
<rect width="48" height="48" fill="white"/>
<path d="M24 6.78525C29.607 6.78525 30.272 6.80625 32.4875 6.90775C38.1785 7.16675 40.8368 9.867 41.0957 15.516C41.1972 17.7297 41.2165 18.3948 41.2165 24.0018C41.2165 29.6105 41.1955 30.2738 41.0957 32.4875C40.835 38.1313 38.1838 40.8368 32.4875 41.0957C30.272 41.1972 29.6105 41.2183 24 41.2183C18.393 41.2183 17.728 41.1972 15.5142 41.0957C9.80925 40.835 7.165 38.1225 6.906 32.4858C6.8045 30.272 6.7835 29.6087 6.7835 24C6.7835 18.393 6.80625 17.7297 6.906 15.5142C7.16675 9.867 9.818 7.165 15.5142 6.906C17.7297 6.80625 18.393 6.78525 24 6.78525ZM24 3C18.2968 3 17.5828 3.0245 15.3427 3.126C7.71625 3.476 3.47775 7.7075 3.12775 15.341C3.0245 17.5828 3 18.2968 3 24C3 29.7033 3.0245 30.419 3.126 32.659C3.476 40.2855 7.7075 44.524 15.341 44.874C17.5828 44.9755 18.2968 45 24 45C29.7033 45 30.419 44.9755 32.659 44.874C40.2785 44.524 44.5275 40.2925 44.8722 32.659C44.9755 30.419 45 29.7033 45 24C45 18.2968 44.9755 17.5828 44.874 15.3427C44.531 7.72325 40.2943 3.47775 32.6607 3.12775C30.419 3.0245 29.7033 3 24 3V3ZM24 13.2165C18.0448 13.2165 13.2165 18.0448 13.2165 24C13.2165 29.9552 18.0448 34.7852 24 34.7852C29.9552 34.7852 34.7835 29.957 34.7835 24C34.7835 18.0448 29.9552 13.2165 24 13.2165ZM24 31C20.1343 31 17 27.8675 17 24C17 20.1343 20.1343 17 24 17C27.8657 17 31 20.1343 31 24C31 27.8675 27.8657 31 24 31ZM35.2105 10.2713C33.8175 10.2713 32.6888 11.4 32.6888 12.7912C32.6888 14.1825 33.8175 15.3112 35.2105 15.3112C36.6017 15.3112 37.7287 14.1825 37.7287 12.7912C37.7287 11.4 36.6017 10.2713 35.2105 10.2713Z" fill="black"/>
</svg>
