<svg width="48" height="48" viewBox="0 0 48 48" fill="none" xmlns="http://www.w3.org/2000/svg">
<rect width="48" height="48" fill="white"/>
<path d="M23.5 3C11.6284 3 2 12.6405 2 24.5309C2 34.044 8.15975 42.1144 16.7042 44.9619C17.7774 45.1611 18.125 44.4936 18.125 43.9266V39.9183C12.1444 41.2209 10.8992 37.3777 10.8992 37.3777C9.92096 34.889 8.51092 34.227 8.51092 34.227C6.55979 32.8903 8.65963 32.919 8.65963 32.919C10.8186 33.0697 11.9545 35.1384 11.9545 35.1384C13.8716 38.4291 16.9837 37.4781 18.211 36.9273C18.4027 35.5368 18.9599 34.5858 19.5763 34.0493C14.8015 33.5021 9.78121 31.6558 9.78121 23.4077C9.78121 21.0554 10.6215 19.1356 11.9957 17.6284C11.7735 17.0848 11.0372 14.894 12.2053 11.9299C12.2053 11.9299 14.0113 11.3522 18.1196 14.1369C19.8343 13.6596 21.6725 13.4209 23.5 13.412C25.3275 13.4209 27.1675 13.6596 28.8857 14.1369C32.9905 11.3522 34.7929 11.9299 34.7929 11.9299C35.9628 14.8958 35.2265 17.0866 35.0043 17.6284C36.3839 19.1356 37.217 21.0572 37.217 23.4077C37.217 31.6773 32.1878 33.4985 27.4005 34.0314C28.1709 34.6988 28.875 36.0086 28.875 38.0182V43.9266C28.875 44.499 29.219 45.1718 30.3101 44.9601C38.8474 42.1091 45 34.0404 45 24.5309C45 12.6405 35.3734 3 23.5 3Z" fill="black"/>
</svg>
