<svg width="48" height="48" viewBox="0 0 48 48" fill="none" xmlns="http://www.w3.org/2000/svg">
<rect width="48" height="48" fill="white"/>
<path d="M24 6.5C33.6495 6.5 41.5 14.3505 41.5 24C41.5 33.6495 33.6495 41.5 24 41.5C14.3505 41.5 6.5 33.6495 6.5 24C6.5 14.3505 14.3505 6.5 24 6.5ZM24 3C12.4028 3 3 12.4028 3 24C3 35.5973 12.4028 45 24 45C35.5973 45 45 35.5973 45 24C45 12.4028 35.5973 3 24 3ZM20.5 20.5H17V24H20.5V34.5H25.75V24H28.935L29.25 20.5H25.75V19.0422C25.75 18.2057 25.918 17.875 26.7265 17.875H29.25V13.5H25.043C21.8965 13.5 20.5 14.886 20.5 17.539V20.5Z" fill="black"/>
</svg>
